<svg width="40" height="41" viewBox="0 0 40 41" fill="none" xmlns="http://www.w3.org/2000/svg">
<rect y="0.5" width="40" height="40" rx="12" fill="#E8E8F2"/>
<g clip-path="url(#clip0_1_31)">
<path fill-rule="evenodd" clip-rule="evenodd" d="M27.9422 27.5578L24.0305 23.6469C26.3858 20.8192 26.1004 16.6391 23.3826 14.1578C20.6649 11.6765 16.4761 11.7717 13.8739 14.3739C11.2717 16.9761 11.1765 21.1649 13.6578 23.8826C16.1391 26.6004 20.3192 26.8858 23.1469 24.5305L27.0578 28.4422C27.302 28.6864 27.698 28.6864 27.9422 28.4422C28.1864 28.198 28.1864 27.802 27.9422 27.5578ZM13.125 19.25C13.125 16.1434 15.6434 13.625 18.75 13.625C21.8566 13.625 24.375 16.1434 24.375 19.25C24.375 22.3566 21.8566 24.875 18.75 24.875C15.6448 24.8716 13.1284 22.3552 13.125 19.25Z" fill="#0D0D1C"/>
</g>
<defs>
<clipPath id="clip0_1_31">
<rect width="20" height="20" fill="white" transform="translate(10 10.5)"/>
</clipPath>
</defs>
</svg>
