<svg width="21" height="20" viewBox="0 0 21 20" fill="none" xmlns="http://www.w3.org/2000/svg">
<g clip-path="url(#clip0_1_55)">
<path fill-rule="evenodd" clip-rule="evenodd" d="M18.8953 17.0578L14.9836 13.1469C17.3389 10.3192 17.0535 6.13911 14.3357 3.65779C11.618 1.17647 7.42924 1.27167 4.82702 3.87389C2.22479 6.47612 2.12959 10.6649 4.61092 13.3826C7.09224 16.1004 11.2723 16.3858 14.1 14.0305L18.0109 17.9422C18.2551 18.1864 18.6511 18.1864 18.8953 17.9422C19.1395 17.698 19.1395 17.302 18.8953 17.0578ZM4.07812 8.75C4.07812 5.6434 6.59652 3.125 9.70312 3.125C12.8097 3.125 15.3281 5.6434 15.3281 8.75C15.3281 11.8566 12.8097 14.375 9.70312 14.375C6.59795 14.3716 4.08157 11.8552 4.07812 8.75Z" fill="#4F4F96"/>
</g>
<defs>
<clipPath id="clip0_1_55">
<rect width="20" height="20" fill="white" transform="translate(0.953125)"/>
</clipPath>
</defs>
</svg>
